<svg width="255" height="111" viewBox="0 0 255 111" fill="none" xmlns="http://www.w3.org/2000/svg">
<path d="M254 107H1L19.6115 69.1762L34.7333 75.0132L85.6241 1L99.292 24.1145L110.633 16.1762L166.759 81.0837L201.655 44.1938L224.047 75.0132L233.934 69.1762L254 107Z" fill="url(#paint0_linear_117_8)" stroke="url(#paint1_linear_117_8)"/>
<path d="M12.424 99.768C8.808 99.768 6.152 98.856 4.456 97.032C2.76 95.208 1.912 92.184 1.912 87.96C1.912 84.6 2.472 80.984 3.592 77.112C4.744 73.24 6.568 69.928 9.064 67.176C11.592 64.392 14.792 63 18.664 63C21.064 63 23 63.528 24.472 64.584C25.944 65.64 26.68 67.256 26.68 69.432C26.68 70.808 26.408 71.896 25.864 72.696C25.32 73.464 24.472 73.848 23.32 73.848C22.168 73.848 21.256 73.432 20.584 72.6C21.16 72.312 21.672 71.736 22.12 70.872C22.568 70.008 22.792 69.112 22.792 68.184C22.792 67.32 22.552 66.616 22.072 66.072C21.624 65.528 20.888 65.256 19.864 65.256C18.168 65.256 16.552 66.424 15.016 68.76C13.48 71.064 12.232 73.976 11.272 77.496C10.344 81.016 9.88 84.408 9.88 87.672C9.88 90.104 10.296 91.96 11.128 93.24C11.96 94.52 13.464 95.16 15.64 95.16C17.528 95.16 19.272 94.744 20.872 93.912C22.472 93.08 23.848 91.896 25 90.36L26.104 90.84C25.304 92.856 24.12 94.536 22.552 95.88C20.984 97.224 19.304 98.216 17.512 98.856C15.72 99.464 14.024 99.768 12.424 99.768ZM31.8674 99.192C29.4994 99.192 27.6274 98.584 26.2514 97.368C24.8754 96.152 24.1874 94.232 24.1874 91.608C24.1874 89.432 24.6354 87.016 25.5314 84.36C26.4274 81.704 27.8674 79.416 29.8514 77.496C31.8354 75.544 34.3314 74.568 37.3394 74.568C41.4354 74.568 43.4834 77.128 43.4834 82.248V82.296C43.5794 82.328 43.7554 82.344 44.0114 82.344C45.0674 82.344 46.2834 82.072 47.6594 81.528C49.0354 80.952 50.2834 80.264 51.4034 79.464L51.8354 80.76C50.9074 81.752 49.6914 82.6 48.1874 83.304C46.7154 83.976 45.0994 84.456 43.3394 84.744C43.0834 87.656 42.4274 90.2 41.3714 92.376C40.3154 94.552 38.9554 96.232 37.2914 97.416C35.6274 98.6 33.8194 99.192 31.8674 99.192ZM33.7874 94.872C34.5554 94.872 35.3234 94.44 36.0914 93.576C36.8594 92.68 37.5314 91.48 38.1074 89.976C38.6834 88.44 39.0994 86.744 39.3554 84.888C38.4914 84.696 38.0594 84.024 38.0594 82.872C38.0594 81.56 38.5554 80.696 39.5474 80.28C39.4834 79.224 39.3234 78.504 39.0674 78.12C38.8114 77.704 38.3634 77.496 37.7234 77.496C36.6674 77.496 35.6434 78.264 34.6514 79.8C33.6594 81.336 32.8594 83.176 32.2514 85.32C31.6434 87.464 31.3394 89.352 31.3394 90.984C31.3394 92.52 31.5154 93.56 31.8674 94.104C32.2194 94.616 32.8594 94.872 33.7874 94.872ZM51.7131 99.288C49.8891 99.288 48.3691 98.664 47.1531 97.416C45.9371 96.168 45.3291 94.216 45.3291 91.56C45.3291 89.192 45.7931 86.712 46.7211 84.12C47.6811 81.496 49.0891 79.288 50.9451 77.496C52.8331 75.672 55.0731 74.76 57.6651 74.76C58.9771 74.76 59.9531 74.984 60.5931 75.432C61.2331 75.88 61.5531 76.472 61.5531 77.208V77.4L63.9051 66.36L71.0091 65.4L65.4891 91.32C65.3611 91.8 65.2971 92.312 65.2971 92.856C65.2971 93.496 65.4411 93.96 65.7291 94.248C66.0491 94.504 66.5611 94.632 67.2651 94.632C68.1611 94.632 68.9291 94.248 69.5691 93.48C70.2411 92.712 70.7691 91.688 71.1531 90.408H73.1691C71.2171 96.136 68.0011 99 63.5211 99C62.2091 99 61.1371 98.648 60.3051 97.944C59.5051 97.24 59.0091 96.216 58.8171 94.872C57.9851 96.152 56.9771 97.208 55.7931 98.04C54.6411 98.872 53.2811 99.288 51.7131 99.288ZM54.8331 94.632C55.6011 94.632 56.3691 94.28 57.1371 93.576C57.9371 92.872 58.4811 91.896 58.7691 90.648V90.408L61.1211 79.416C60.8331 78.296 60.1771 77.736 59.1531 77.736C57.8731 77.736 56.7211 78.488 55.6971 79.992C54.6731 81.464 53.8731 83.256 53.2971 85.368C52.7211 87.448 52.4331 89.288 52.4331 90.888C52.4331 92.488 52.6571 93.512 53.1051 93.96C53.5851 94.408 54.1611 94.632 54.8331 94.632ZM77.9399 99.288C75.6039 99.288 73.7799 98.68 72.4679 97.464C71.1559 96.216 70.4999 94.28 70.4999 91.656C70.4999 89.448 70.9319 87.016 71.7959 84.36C72.6599 81.704 74.0679 79.416 76.0199 77.496C77.9719 75.544 80.4519 74.568 83.4599 74.568C86.9799 74.568 88.7399 76.104 88.7399 79.176C88.7399 80.968 88.2279 82.616 87.2039 84.12C86.1799 85.624 84.8199 86.84 83.1239 87.768C81.4279 88.664 79.6199 89.176 77.6999 89.304C77.6359 90.008 77.6039 90.488 77.6039 90.744C77.6039 93.4 78.5959 94.728 80.5799 94.728C81.4759 94.728 82.4359 94.488 83.4599 94.008C84.4839 93.528 85.4119 92.92 86.2439 92.184C85.3799 96.92 82.6119 99.288 77.9399 99.288ZM78.0359 87C79.2519 86.968 80.3879 86.568 81.4439 85.8C82.5319 85.032 83.3959 84.056 84.0359 82.872C84.7079 81.656 85.0439 80.392 85.0439 79.08C85.0439 77.768 84.6439 77.112 83.8439 77.112C82.7239 77.112 81.6039 78.136 80.4839 80.184C79.3959 82.2 78.5799 84.472 78.0359 87ZM111.06 66.216C108.788 67.08 107.028 68.424 105.78 70.248C104.532 72.04 103.908 74.248 103.908 76.872C103.908 78.056 104.02 78.888 104.244 79.368C104.468 79.816 104.58 80.072 104.58 80.136C102.852 80.136 101.556 79.784 100.692 79.08C99.8603 78.344 99.4443 77.144 99.4443 75.48C99.4443 73.432 100.276 71.448 101.94 69.528C103.636 67.576 105.796 66.008 108.42 64.824C111.044 63.608 113.668 63 116.292 63C116.74 63 117.38 63.032 118.212 63.096L118.644 92.616L128.724 63.24H132.084L118.74 99H111.828L111.06 66.216ZM134.448 99.288C132.624 99.288 131.104 98.664 129.888 97.416C128.671 96.168 128.063 94.216 128.063 91.56C128.063 89.192 128.528 86.712 129.456 84.12C130.416 81.496 131.824 79.288 133.68 77.496C135.568 75.672 137.808 74.76 140.4 74.76C141.712 74.76 142.688 74.984 143.328 75.432C143.968 75.88 144.288 76.472 144.288 77.208V77.544L144.816 75H151.728L148.272 91.32C148.144 91.8 148.08 92.312 148.08 92.856C148.08 94.232 148.736 94.92 150.048 94.92C150.944 94.92 151.712 94.504 152.352 93.672C153.024 92.84 153.552 91.752 153.936 90.408H155.952C154.768 93.864 153.296 96.216 151.536 97.464C149.808 98.68 148.064 99.288 146.304 99.288C144.96 99.288 143.872 98.92 143.04 98.184C142.24 97.416 141.76 96.312 141.6 94.872C140.672 96.184 139.632 97.256 138.48 98.088C137.36 98.888 136.016 99.288 134.448 99.288ZM137.568 94.632C138.368 94.632 139.152 94.264 139.92 93.528C140.72 92.76 141.264 91.72 141.552 90.408L143.856 79.56C143.856 79.144 143.696 78.744 143.376 78.36C143.056 77.944 142.56 77.736 141.888 77.736C140.608 77.736 139.456 78.488 138.432 79.992C137.408 81.464 136.608 83.256 136.032 85.368C135.456 87.448 135.168 89.288 135.168 90.888C135.168 92.488 135.392 93.512 135.84 93.96C136.32 94.408 136.896 94.632 137.568 94.632ZM158.705 99.288C157.169 99.288 155.921 98.808 154.961 97.848C154.033 96.888 153.569 95.448 153.569 93.528C153.569 92.728 153.697 91.688 153.953 90.408L159.089 66.36L166.193 65.4L160.673 91.32C160.545 91.8 160.481 92.312 160.481 92.856C160.481 93.496 160.625 93.96 160.913 94.248C161.233 94.504 161.745 94.632 162.449 94.632C163.377 94.632 164.241 94.248 165.041 93.48C165.841 92.68 166.417 91.656 166.769 90.408H168.785C167.601 93.864 166.081 96.216 164.225 97.464C162.369 98.68 160.529 99.288 158.705 99.288ZM171.502 99.288C169.966 99.288 168.718 98.808 167.758 97.848C166.83 96.888 166.366 95.448 166.366 93.528C166.366 92.728 166.494 91.688 166.75 90.408L171.886 66.36L178.99 65.4L173.47 91.32C173.342 91.8 173.278 92.312 173.278 92.856C173.278 93.496 173.422 93.96 173.71 94.248C174.03 94.504 174.542 94.632 175.246 94.632C176.174 94.632 177.038 94.248 177.838 93.48C178.638 92.68 179.214 91.656 179.566 90.408H181.582C180.398 93.864 178.878 96.216 177.022 97.464C175.166 98.68 173.326 99.288 171.502 99.288ZM186.411 99.288C184.043 99.288 182.203 98.68 180.891 97.464C179.579 96.216 178.923 94.28 178.923 91.656C178.923 89.448 179.355 87.016 180.219 84.36C181.083 81.704 182.491 79.416 184.443 77.496C186.395 75.544 188.875 74.568 191.883 74.568C195.403 74.568 197.163 76.104 197.163 79.176C197.163 80.968 196.651 82.616 195.627 84.12C194.603 85.624 193.243 86.84 191.547 87.768C189.851 88.664 188.043 89.176 186.123 89.304C186.059 90.264 186.027 90.904 186.027 91.224C186.027 92.792 186.299 93.864 186.843 94.44C187.387 94.984 188.267 95.256 189.483 95.256C191.211 95.256 192.683 94.856 193.899 94.056C195.147 93.256 196.507 92.04 197.979 90.408H199.611C196.059 96.328 191.659 99.288 186.411 99.288ZM186.507 87C187.691 86.936 188.811 86.52 189.867 85.752C190.955 84.984 191.819 84.008 192.459 82.824C193.131 81.64 193.467 80.392 193.467 79.08C193.467 77.768 193.067 77.112 192.267 77.112C191.115 77.112 189.979 78.12 188.859 80.136C187.771 82.152 186.987 84.44 186.507 87ZM205.457 111C203.953 111 202.625 110.504 201.473 109.512C200.353 108.552 199.793 107.32 199.793 105.816C199.793 104.408 200.145 103.256 200.849 102.36C201.553 101.464 202.465 100.76 203.585 100.248C204.705 99.736 206.209 99.192 208.097 98.616L208.577 96.504C206.945 98.36 204.993 99.288 202.721 99.288C201.185 99.288 199.937 98.808 198.977 97.848C198.049 96.888 197.585 95.448 197.585 93.528C197.585 92.728 197.713 91.688 197.969 90.408L201.233 75H208.145L204.689 91.32C204.593 91.704 204.545 92.104 204.545 92.52C204.545 93.928 205.025 94.632 205.985 94.632C206.881 94.632 207.649 94.264 208.289 93.528C208.929 92.76 209.441 91.72 209.825 90.408L213.089 75H220.049L214.193 102.84C213.553 105.912 212.417 108.04 210.785 109.224C209.185 110.408 207.409 111 205.457 111ZM204.353 106.728C204.929 106.728 205.473 106.424 205.985 105.816C206.497 105.24 206.897 104.296 207.185 102.984L207.761 100.152C206.065 100.728 204.753 101.4 203.825 102.168C202.897 102.936 202.433 103.928 202.433 105.144C202.433 105.528 202.625 105.88 203.009 106.2C203.393 106.552 203.841 106.728 204.353 106.728Z" fill="black"/>
<defs>
<linearGradient id="paint0_linear_117_8" x1="127.5" y1="1" x2="127.5" y2="107" gradientUnits="userSpaceOnUse">
<stop offset="0.213542" stop-color="#2E322C"/>
<stop offset="0.765625" stop-color="#3F4B39" stop-opacity="0.58"/>
<stop offset="1" stop-color="#617955" stop-opacity="0"/>
</linearGradient>
<linearGradient id="paint1_linear_117_8" x1="127.5" y1="1" x2="127.5" y2="107" gradientUnits="userSpaceOnUse">
<stop offset="0.666667" stop-color="#ABCBB4"/>
<stop offset="1" stop-color="#95BAA0" stop-opacity="0"/>
</linearGradient>
</defs>
</svg>
